<svg class="robot__hand" xmlns="http://www.w3.org/2000/svg" viewBox="0 0 198 767"><path fill="#134E71" d="M52.4 47.4h15.2v194H52.4z"/><path fill="#FFF" d="M74.8 119.6c0 4.9-4 8.8-8.8 8.8H54c-4.9 0-8.8-4-8.8-8.8V65.9c0-4.9 4-8.8 8.8-8.8h12c4.9 0 8.8 4 8.8 8.8v53.7z"/><path fill="#134E71" d="M89.7 143.6h15.2v97.7H89.7zm36.7 71.8h15.2v26h-15.2zm37.1 0h15.2v26h-15.2z"/><path fill="#FFF" d="M74.8 214.7c0 4.9-4 8.8-8.8 8.8H54c-4.9 0-8.8-4-8.8-8.8v-72.9c0-4.9 4-8.8 8.8-8.8h12c4.9 0 8.8 4 8.8 8.8v72.9zm37.3 0c0 4.9-4 8.8-8.8 8.8h-12c-4.9 0-8.8-4-8.8-8.8v-75.9c0-4.9 4-8.8 8.8-8.8h12c4.9 0 8.8 4 8.8 8.8v75.9zm36.7 0c0 4.9-4 8.8-8.8 8.8h-12c-4.9 0-8.8-4-8.8-8.8v-68.5c0-4.9 4-8.8 8.8-8.8h12c4.9 0 8.8 4 8.8 8.8v68.5zm37.2 0c0 4.9-4 8.8-8.8 8.8h-12c-4.9 0-8.8-4-8.8-8.8v-58.9c0-4.9 4-8.8 8.8-8.8h12c4.9 0 8.8 4 8.8 8.8v58.9z"/><path fill="#134E71" d="M19.34 313.365l10.747-10.748 32.315 32.314-10.748 10.748z"/><path fill="#FFF" d="M74.8 43.3c0 4.9-4 8.8-8.8 8.8H54c-4.9 0-8.8-4-8.8-8.8v-28c0-4.9 4-8.8 8.8-8.8h12c4.9 0 8.8 4 8.8 8.8v28zM186 358.7c0 4.9-4 8.8-9 8.8H54.4c-5 0-9-4-9-8.8V240.8c0-4.9 4-8.8 9-8.8H177c5 0 9 4 9 8.8v117.9zM35.8 310.3c0 4.9-4 8.8-8.8 8.8H15c-4.9 0-8.8-4-8.8-8.8v-103c0-4.9 4-8.8 8.8-8.8h12c4.9 0 8.8 4 8.8 8.8v103zm82.5 432c0 4.9-4 8.8-8.8 8.8H91c-4.9 0-8.8-4-8.8-8.8V419.6c0-4.9 4-8.8 8.8-8.8h18.4c4.9 0 8.8 4 8.8 8.8v322.7zm62.1-346.1c0 4.9-4 8.8-9 8.8h-110c-5 0-9-4-9-8.8v-13.7c0-4.9 4-8.8 9-8.8h110.1c5 0 9 4 9 8.8v13.7zm-24.9 342c0 3.4-2.6 6.1-5.9 6.1-3.2 0-5.9-2.7-5.9-6.1V418.7c0-3.4 2.6-6.1 5.9-6.1 3.2 0 5.9 2.7 5.9 6.1v319.5z"/></svg>