<?xml version="1.0" encoding="utf-8"?>
<!-- Generator: Adobe Illustrator 18.0.0, SVG Export Plug-In . SVG Version: 6.00 Build 0)	-->
<!DOCTYPE svg PUBLIC "-//W3C//DTD SVG 1.1//EN" "http://www.w3.org/Graphics/SVG/1.1/DTD/svg11.dtd">
<svg class="robot__head" version="1.1" id="Layer_1" xmlns="http://www.w3.org/2000/svg" xmlns:xlink="http://www.w3.org/1999/xlink" x="0px" y="0px"
	 viewBox="0 11.9 807 806" enable-background="new 0 11.9 807 806" xml:space="preserve">
<g>
	<defs>
		<path id="SVGID_1_" d="M274.5,596.4c0,2.6,23.1,57.3,24.5,64.7c1.4,7.4,20.9,58.6,20.9,58.6l64.8,43.4h36.7l36-14.8l42.5-56.4
			l30.3-63.4c0,0,4.9-63.6,0-63.6c-4.8,0-238.2-1-238.2-1S274.5,593.8,274.5,596.4"/>
	</defs>
	<clipPath id="SVGID_2_">
		<use xlink:href="#SVGID_1_"	overflow="visible"/>
	</clipPath>

		<linearGradient id="SVGID_3_" gradientUnits="userSpaceOnUse" x1="0.7545" y1="838.602" x2="3.6702" y2="838.602" gradientTransform="matrix(3.3248 -82.7799 -82.7799 -3.3248 69817.125 3629.2817)">
		<stop	offset="0" style="stop-color:#FFFFFF"/>
		<stop	offset="1" style="stop-color:#1D1D1B"/>
	</linearGradient>
	<polygon clip-path="url(#SVGID_2_)" fill="url(#SVGID_3_)" points="266.6,762.8 275,553.5 543.1,564.3 534.7,773.6 	"/>
</g>
<g>
	<defs>
		<rect id="SVGID_4_" x="11" y="15.9" width="768" height="796"/>
	</defs>
	<clipPath id="SVGID_5_">
		<use xlink:href="#SVGID_4_"	overflow="visible"/>
	</clipPath>
	<path clip-path="url(#SVGID_5_)" fill="none" stroke="#009EE2" stroke-width="1.045" d="M281.2,621c0,0,22.9-49.9,27.7-62.6
		c4.7-12.7,22.5-41.5,30.1-48.2c7.6-6.8,16.1-25.4,16.1-28.8"/>
	<path clip-path="url(#SVGID_5_)" fill="none" stroke="#BE1E2D" stroke-width="1.045" d="M275.9,655.2c0,0,34.9-57.6,42.1-72.2
		c7.2-14.6,34.2-47.8,45.8-55.6c11.6-7.8,24.4-29.3,24.4-33.2"/>
	<path clip-path="url(#SVGID_5_)" fill="none" stroke="#3DA435" stroke-width="1.045" d="M280.7,575.9c0,0,53.6-39.1,62.9-44.1
		c9.4-5.1,12.7-18,15-27.9c2.4-9.9-1.1-18.6-1.1-18.6"/>
</g>
<g>
	<defs>
		<path id="SVGID_6_" d="M313.8,588.1c0,16.9-5.4,79.5-5.4,79.5l19.5,16.1c0,0,6.8-120.4,11-143.8c4.2-23.5,12.7-61.8,12.7-61.8
			l-19.5-13.5C332.1,464.5,313.8,571.1,313.8,588.1"/>
	</defs>
	<clipPath id="SVGID_7_">
		<use xlink:href="#SVGID_6_"	overflow="visible"/>
	</clipPath>

	<linearGradient id="SVGID_8_" gradientUnits="userSpaceOnUse" x1="11" y1="574.0917" x2="13.9157" y2="574.0917" gradientTransform="matrix(1.000000e-03 0 0 -1.000000e-03 -173.9867 437.1975)">
		<stop	offset="0" style="stop-color:#FFFFFF"/>
		<stop	offset="1" style="stop-color:#1D1D1B"/>
	</linearGradient>
	<rect x="308.4" y="464.5" clip-path="url(#SVGID_7_)" fill="url(#SVGID_8_)" width="43.2" height="219.1"/>
</g>
<g>
	<defs>
		<path id="SVGID_9_" d="M458.2,478.1c0,0,12.7,68.5,12.7,88.8v122.7l21.2-25.4v-96.5c0-12.7-11.8-111.7-11.8-111.7L458.2,478.1z"/>
	</defs>
	<clipPath id="SVGID_10_">
		<use xlink:href="#SVGID_9_"	overflow="visible"/>
	</clipPath>

	<linearGradient id="SVGID_11_" gradientUnits="userSpaceOnUse" x1="11" y1="572.8219" x2="13.9157" y2="572.8219" gradientTransform="matrix(1.000000e-03 0 0 -1.000000e-03 -173.9867 437.1975)">
		<stop	offset="0" style="stop-color:#FFFFFF"/>
		<stop	offset="1" style="stop-color:#1D1D1B"/>
	</linearGradient>
	<rect x="458.2" y="456.1" clip-path="url(#SVGID_10_)" fill="url(#SVGID_11_)" width="33.8" height="233.5"/>
</g>
<g>
	<defs>
		<rect id="SVGID_12_" x="11" y="15.9" width="768" height="796"/>
	</defs>
	<clipPath id="SVGID_13_">
		<use xlink:href="#SVGID_12_"	overflow="visible"/>
	</clipPath>
	<path clip-path="url(#SVGID_13_)" fill="none" stroke="#00A057" stroke-width="1.045" d="M506.1,631.5c0,0-25.4-93.2-28.7-101.6
		c-3.4-8.5-33.2-40-33.2-43.4"/>
	<path clip-path="url(#SVGID_13_)" fill="none" stroke="#FFFF00" stroke-width="1.045" d="M533.9,580c0,0-37.8-25.3-61.7-42.8
		c-23.9-17.5-15-12-19.5-30.4c-4.4-18.5,0-25.4,0-25.4"/>
	<path clip-path="url(#SVGID_13_)" fill="none" stroke="#EC008C" stroke-width="1.045" d="M526.4,643.1c0,0-49.8-37.9-81.3-64.2
		c-31.4-26.3-19.8-17.9-25.6-45.6c-5.8-27.7,0-38,0-38"/>
</g>
<polygon fill="#1D1D1B" points="373.9,477.3 365.8,811.9 446.3,811.9 446.3,477.3 "/>
<g>
	<defs>
		<rect id="SVGID_14_" x="354.1" y="486.7" width="19.9" height="267.7"/>
	</defs>
	<clipPath id="SVGID_15_">
		<use xlink:href="#SVGID_14_"	overflow="visible"/>
	</clipPath>

	<linearGradient id="SVGID_16_" gradientUnits="userSpaceOnUse" x1="34.7124" y1="871.4946" x2="37.6283" y2="871.4946" gradientTransform="matrix(6.8108 0 0 -6.8108 117.6665 6556.1094)">
		<stop	offset="0" style="stop-color:#FFFFFF"/>
		<stop	offset="1" style="stop-color:#1D1D1B"/>
	</linearGradient>
	<rect x="354.1" y="486.7" clip-path="url(#SVGID_15_)" fill="url(#SVGID_16_)" width="19.9" height="267.7"/>
</g>
<g>
	<defs>
		<polygon id="SVGID_17_" points="440.7,484.7 432.1,754.1 451.9,754.9 460.6,485.5 		"/>
	</defs>
	<clipPath id="SVGID_18_">
		<use xlink:href="#SVGID_17_"	overflow="visible"/>
	</clipPath>

	<linearGradient id="SVGID_19_" gradientUnits="userSpaceOnUse" x1="40.1931" y1="871.9307" x2="43.1088" y2="871.9307" gradientTransform="matrix(7.0767 0.2471 0.2471 -7.0767 -63.9005 6779.9058)">
		<stop	offset="0" style="stop-color:#FFFFFF"/>
		<stop	offset="1" style="stop-color:#1D1D1B"/>
	</linearGradient>
	<polygon clip-path="url(#SVGID_18_)" fill="url(#SVGID_19_)" points="432.1,483.7 470,485 460.5,755.9 422.7,754.5 	"/>
</g>
<g>
	<defs>
		<rect id="SVGID_20_" x="11" y="15.9" width="768" height="796"/>
	</defs>
	<clipPath id="SVGID_21_">
		<use xlink:href="#SVGID_20_"	overflow="visible"/>
	</clipPath>
	<path clip-path="url(#SVGID_21_)" fill="#FFFFFF" d="M11,811.9c0,0,20.7-94.7,61.2-142.4c26.9-31.6,50.4-45.6,74.4-59.2
		c33.8-19.1,46-25,63.6-34.1c20.7-10.8,39.9-20.1,50.3-24.2c13.3-5.4,27.7-13.8,27.7-13.8l9.5,37.9l16.5,70l27.7,36.9l11.9,42.9
		l24.5,18.2l28.7,9.3v58.7H11z"/>
	<path clip-path="url(#SVGID_21_)" fill="#FFFFFF" d="M409,811.9v-58.4l27-8.4l15.4-22.6l13.5-37.4l30.8-49.5l14.4-90.3
		c0,0,19.7,10.5,29.6,16.6c13.1,8.1,42.2,26.3,53.4,32.8c11.2,6.5,54.7,34.2,64.9,40.4c22.2,13.5,52.2,42.3,69,62.8
		c16.7,20.6,34.5,44.9,44.3,74.1c8.9,26.2,7.6,40,7.6,40H409z"/>
	<path clip-path="url(#SVGID_21_)" fill="#FFFFFF" d="M541.5,312.5c20.1,0,36.4-29.6,36.4-66.1c0-36.5-16.3-66.1-36.4-66.1
		s-36.4,29.6-36.4,66.1C505.1,282.9,521.4,312.5,541.5,312.5"/>
	<path clip-path="url(#SVGID_21_)" fill="#FFFFFF" d="M275,312.5c20.1,0,36.4-29.6,36.4-66.1c0-36.5-16.3-66.1-36.4-66.1
		c-20.1,0-36.4,29.6-36.4,66.1C238.6,282.9,254.9,312.5,275,312.5"/>
	<path clip-path="url(#SVGID_21_)" fill="#FFFFFF" d="M405.7,503.4c-22.1,0-70.2-13.5-95.6-66c-25.9-53.6-27.5-85.5-31.3-110.4
		c-3.8-25-9.3-62.2-10.2-102c-0.8-39.8,5.9-109.6,22.8-140.5C312,47.1,354.1,25,377.8,19.5c23.7-5.5,54.6-4.2,73.6,0.8
		c19,5.1,61.8,26.2,77.8,55.8c11.4,20.9,22,63.9,23.7,80c1.7,16.1,5.1,38.5,2.9,64.7c-1.9,22.4-17.1,128.4-27.5,157.4
		c-11.8,33-27.1,65.2-48.2,88C454.5,493.9,434.5,503.4,405.7,503.4"/>
	<path clip-path="url(#SVGID_21_)" fill="#1D1D1B" d="M284.7,233.5c0,0-0.9-14.9,7.6-19.5c16.1-8.7,81.1,5.8,117.7,6.8
		c32.9,0.8,87.1-2.5,104.9-2.5c17.8,0,19.5,7.6,20.3,11.8c0.6,3.2-0.5,51-5.9,80.4c-1.7,9.3-7.6,20.3-13.5,24.5
		c-8.4,6-69.4,8.6-105.7,8.8c-40.2,0.2-88-9.6-94.8-11.3c-6.8-1.7-22-15.2-24.5-30.5C288.1,286.8,284.7,233.5,284.7,233.5"/>
</g>
<line fill="none" stroke="#A5A5A4" stroke-width="0.935" stroke-linecap="round" x1="204.3" y1="804.6" x2="178.5" y2="595.4"/>
<line fill="none" stroke="#A5A5A4" stroke-width="0.935" stroke-linecap="round" x1="466.6" y1="689.9" x2="599.4" y2="691.3"/>
<line fill="none" stroke="#A5A5A4" stroke-width="0.935" stroke-linecap="round" x1="197.1" y1="695.6" x2="339.3" y2="691.3"/>
<line fill="none" stroke="#A5A5A4" stroke-width="0.935" stroke-linecap="round" x1="581" y1="803.2" x2="622.8" y2="617.3"/>
<g>
	<defs>
		<rect id="SVGID_22_" x="11" y="15.9" width="768" height="796"/>
	</defs>
	<clipPath id="SVGID_23_">
		<use xlink:href="#SVGID_22_"	overflow="visible"/>
	</clipPath>
	<path clip-path="url(#SVGID_23_)" fill="#1D1D1B" d="M379.2,426c-1.8,0.5-2.4,1.7-2.4,3.5c0,1.8,0.2,7.8,0.5,8.3
		c0.7,1.3,1.1,1.7,3.1,2.2c2,0.5,50.6,0.5,52,0.3c3-0.4,3.2-0.8,4-2.6c0.8-1.8,1.3-7.8,0.8-9.3c-0.6-1.7-1.7-2.4-4.7-2.3
		C429.5,426.1,380.3,425.7,379.2,426"/>
	<path clip-path="url(#SVGID_23_)" fill="#3C3C3B" d="M472.8,310.4c17.3,0,31.3-14,31.3-31.3c0-17.3-14-31.3-31.3-31.3
		c-17.3,0-31.3,14-31.3,31.3C441.5,296.4,455.5,310.4,472.8,310.4"/>
	<path class="robot__eye" clip-path="url(#SVGID_23_)" fill="#3DA435" d="M472.8,288.1c5.5,0,10-4.5,10-10c0-5.5-4.5-10-10-10c-5.5,0-10,4.5-10,10
	C462.8,283.7,467.3,288.1,472.8,288.1"/>
	<path clip-path="url(#SVGID_23_)" fill="#3C3C3B" d="M348.7,310.4c17.3,0,31.3-14,31.3-31.3c0-17.3-14-31.3-31.3-31.3
		c-17.3,0-31.3,14-31.3,31.3C317.5,296.4,331.5,310.4,348.7,310.4"/>
	<path class="robot__eye" clip-path="url(#SVGID_23_)" fill="#3DA435" d="M348.7,288.1c5.5,0,10-4.5,10-10c0-5.5-4.5-10-10-10c-5.5,0-10,4.5-10,10
	C338.7,283.7,343.2,288.1,348.7,288.1"/>
</g>
</svg>
