<svg xmlns="http://www.w3.org/2000/svg" xmlns:xlink="http://www.w3.org/1999/xlink" viewBox="0 11.9 807 806"><defs><path id="a" d="M274.5 596.4c0 2.6 23.1 57.3 24.5 64.7 1.4 7.4 20.9 58.6 20.9 58.6l64.8 43.4h36.7l36-14.8 42.5-56.4 30.3-63.4s4.9-63.6 0-63.6c-4.8 0-238.2-1-238.2-1s-17.5 29.9-17.5 32.5"/></defs><clipPath id="b"><use xlink:href="#a" overflow="visible"/></clipPath><linearGradient id="c" gradientUnits="userSpaceOnUse" x1=".754" y1="838.602" x2="3.67" y2="838.602" gradientTransform="scale(82.8466 -82.8466) rotate(87.7 444.165 416.724)"><stop offset="0" stop-color="#fff"/><stop offset="1" stop-color="#1d1d1b"/></linearGradient><path clip-path="url(#b)" fill="url(#c)" d="M266.6 762.8l8.4-209.3 268.1 10.8-8.4 209.3z"/><defs><path id="d" d="M11 15.9h768v796H11z"/></defs><clipPath id="e"><use xlink:href="#d" overflow="visible"/></clipPath><path clip-path="url(#e)" fill="none" stroke="#009EE2" stroke-width="1.045" d="M281.2 621s22.9-49.9 27.7-62.6c4.7-12.7 22.5-41.5 30.1-48.2 7.6-6.8 16.1-25.4 16.1-28.8"/><path clip-path="url(#e)" fill="none" stroke="#BE1E2D" stroke-width="1.045" d="M275.9 655.2s34.9-57.6 42.1-72.2c7.2-14.6 34.2-47.8 45.8-55.6 11.6-7.8 24.4-29.3 24.4-33.2"/><path clip-path="url(#e)" fill="none" stroke="#3DA435" stroke-width="1.045" d="M280.7 575.9s53.6-39.1 62.9-44.1c9.4-5.1 12.7-18 15-27.9 2.4-9.9-1.1-18.6-1.1-18.6"/><defs><path id="f" d="M313.8 588.1c0 16.9-5.4 79.5-5.4 79.5l19.5 16.1s6.8-120.4 11-143.8c4.2-23.5 12.7-61.8 12.7-61.8l-19.5-13.5c0-.1-18.3 106.5-18.3 123.5"/></defs><clipPath id="g"><use xlink:href="#f" overflow="visible"/></clipPath><linearGradient id="h" gradientUnits="userSpaceOnUse" x1="11" y1="574.092" x2="13.916" y2="574.092" gradientTransform="matrix(.001 0 0 -.001 -173.987 437.197)"><stop offset="0" stop-color="#fff"/><stop offset="1" stop-color="#1d1d1b"/></linearGradient><path clip-path="url(#g)" fill="url(#h)" d="M308.4 464.5h43.2v219.1h-43.2z"/><defs><path id="i" d="M458.2 478.1s12.7 68.5 12.7 88.8v122.7l21.2-25.4v-96.5c0-12.7-11.8-111.7-11.8-111.7l-22.1 22.1z"/></defs><clipPath id="j"><use xlink:href="#i" overflow="visible"/></clipPath><linearGradient id="k" gradientUnits="userSpaceOnUse" x1="11" y1="572.822" x2="13.916" y2="572.822" gradientTransform="matrix(.001 0 0 -.001 -173.987 437.197)"><stop offset="0" stop-color="#fff"/><stop offset="1" stop-color="#1d1d1b"/></linearGradient><path clip-path="url(#j)" fill="url(#k)" d="M458.2 456.1H492v233.5h-33.8z"/><g><defs><path id="l" d="M11 15.9h768v796H11z"/></defs><clipPath id="m"><use xlink:href="#l" overflow="visible"/></clipPath><path clip-path="url(#m)" fill="none" stroke="#00A057" stroke-width="1.045" d="M506.1 631.5s-25.4-93.2-28.7-101.6c-3.4-8.5-33.2-40-33.2-43.4"/><path clip-path="url(#m)" fill="none" stroke="#FF0" stroke-width="1.045" d="M533.9 580s-37.8-25.3-61.7-42.8c-23.9-17.5-15-12-19.5-30.4-4.4-18.5 0-25.4 0-25.4"/><path clip-path="url(#m)" fill="none" stroke="#EC008C" stroke-width="1.045" d="M526.4 643.1s-49.8-37.9-81.3-64.2c-31.4-26.3-19.8-17.9-25.6-45.6-5.8-27.7 0-38 0-38"/></g><path fill="#1D1D1B" d="M373.9 477.3l-8.1 334.6h80.5V477.3z"/><g><defs><path id="n" d="M354.1 486.7H374v267.7h-19.9z"/></defs><clipPath id="o"><use xlink:href="#n" overflow="visible"/></clipPath><linearGradient id="p" gradientUnits="userSpaceOnUse" x1="34.712" y1="871.495" x2="37.628" y2="871.495" gradientTransform="matrix(6.8108 0 0 -6.8108 117.666 6556.11)"><stop offset="0" stop-color="#fff"/><stop offset="1" stop-color="#1d1d1b"/></linearGradient><path clip-path="url(#o)" fill="url(#p)" d="M354.1 486.7H374v267.7h-19.9z"/></g><g><defs><path id="q" d="M440.7 484.7l-8.6 269.4 19.8.8 8.7-269.4z"/></defs><clipPath id="r"><use xlink:href="#q" overflow="visible"/></clipPath><linearGradient id="s" gradientUnits="userSpaceOnUse" x1="40.193" y1="871.931" x2="43.109" y2="871.931" gradientTransform="scale(7.081 -7.081) rotate(-2 -27434.06 -220.215)"><stop offset="0" stop-color="#fff"/><stop offset="1" stop-color="#1d1d1b"/></linearGradient><path clip-path="url(#r)" fill="url(#s)" d="M432.1 483.7L470 485l-9.5 270.9-37.8-1.4z"/></g><g><defs><path id="t" d="M11 15.9h768v796H11z"/></defs><clipPath id="u"><use xlink:href="#t" overflow="visible"/></clipPath><path clip-path="url(#u)" fill="#FFF" d="M11 811.9s20.7-94.7 61.2-142.4c26.9-31.6 50.4-45.6 74.4-59.2 33.8-19.1 46-25 63.6-34.1 20.7-10.8 39.9-20.1 50.3-24.2 13.3-5.4 27.7-13.8 27.7-13.8l9.5 37.9 16.5 70 27.7 36.9 11.9 42.9 24.5 18.2 28.7 9.3v58.7H11zM409 811.9v-58.4l27-8.4 15.4-22.6 13.5-37.4 30.8-49.5 14.4-90.3s19.7 10.5 29.6 16.6c13.1 8.1 42.2 26.3 53.4 32.8 11.2 6.5 54.7 34.2 64.9 40.4 22.2 13.5 52.2 42.3 69 62.8 16.7 20.6 34.5 44.9 44.3 74.1 8.9 26.2 7.6 40 7.6 40H409zM541.5 312.5c20.1 0 36.4-29.6 36.4-66.1 0-36.5-16.3-66.1-36.4-66.1s-36.4 29.6-36.4 66.1c0 36.5 16.3 66.1 36.4 66.1M275 312.5c20.1 0 36.4-29.6 36.4-66.1 0-36.5-16.3-66.1-36.4-66.1-20.1 0-36.4 29.6-36.4 66.1 0 36.5 16.3 66.1 36.4 66.1"/><path clip-path="url(#u)" fill="#FFF" d="M405.7 503.4c-22.1 0-70.2-13.5-95.6-66-25.9-53.6-27.5-85.5-31.3-110.4-3.8-25-9.3-62.2-10.2-102-.8-39.8 5.9-109.6 22.8-140.5 20.6-37.4 62.7-59.5 86.4-65 23.7-5.5 54.6-4.2 73.6.8 19 5.1 61.8 26.2 77.8 55.8 11.4 20.9 22 63.9 23.7 80 1.7 16.1 5.1 38.5 2.9 64.7-1.9 22.4-17.1 128.4-27.5 157.4-11.8 33-27.1 65.2-48.2 88-25.6 27.7-45.6 37.2-74.4 37.2"/><path clip-path="url(#u)" fill="#1D1D1B" d="M284.7 233.5s-.9-14.9 7.6-19.5c16.1-8.7 81.1 5.8 117.7 6.8 32.9.8 87.1-2.5 104.9-2.5 17.8 0 19.5 7.6 20.3 11.8.6 3.2-.5 51-5.9 80.4-1.7 9.3-7.6 20.3-13.5 24.5-8.4 6-69.4 8.6-105.7 8.8-40.2.2-88-9.6-94.8-11.3-6.8-1.7-22-15.2-24.5-30.5-2.7-15.2-6.1-68.5-6.1-68.5"/></g><path fill="none" stroke="#A5A5A4" stroke-width=".935" stroke-linecap="round" d="M204.3 804.6l-25.8-209.2M466.6 689.9l132.8 1.4M197.1 695.6l142.2-4.3M581 803.2l41.8-185.9"/><g><defs><path id="v" d="M11 15.9h768v796H11z"/></defs><clipPath id="w"><use xlink:href="#v" overflow="visible"/></clipPath><path clip-path="url(#w)" fill="#1D1D1B" d="M379.2 426c-1.8.5-2.4 1.7-2.4 3.5s.2 7.8.5 8.3c.7 1.3 1.1 1.7 3.1 2.2 2 .5 50.6.5 52 .3 3-.4 3.2-.8 4-2.6.8-1.8 1.3-7.8.8-9.3-.6-1.7-1.7-2.4-4.7-2.3-3 0-52.2-.4-53.3-.1"/><path class="robot__eye--outer" clip-path="url(#w)" fill="#3C3C3B" d="M472.8 310.4c17.3 0 31.3-14 31.3-31.3s-14-31.3-31.3-31.3-31.3 14-31.3 31.3 14 31.3 31.3 31.3"/><path class="robot__eye" clip-path="url(#w)" fill="#3DA435" d="M472.8 288.1c5.5 0 10-4.5 10-10s-4.5-10-10-10-10 4.5-10 10c0 5.6 4.5 10 10 10"/><path class="robot__eye--outer" clip-path="url(#w)" fill="#3C3C3B" d="M348.7 310.4c17.3 0 31.3-14 31.3-31.3s-14-31.3-31.3-31.3-31.3 14-31.3 31.3c.1 17.3 14.1 31.3 31.3 31.3"/><path class="robot__eye" clip-path="url(#w)" fill="#3DA435" d="M348.7 288.1c5.5 0 10-4.5 10-10s-4.5-10-10-10-10 4.5-10 10c0 5.6 4.5 10 10 10"/></g></svg>